<mxfile host="www.draw.io" modified="2020-01-22T07:27:01.662Z" agent="Mozilla/5.0 (Windows NT 10.0; Win64; x64) AppleWebKit/537.36 (KHTML, like Gecko) Chrome/79.0.3945.88 Safari/537.36" etag="-2PbfUOQm4Yf6m-_8SWe" version="12.5.5" type="github">
  <diagram id="l8n8HB8UaulwXfO8ayx4" name="Page-1">
    <mxGraphModel dx="589" dy="289" grid="0" gridSize="10" guides="1" tooltips="1" connect="1" arrows="1" fold="1" page="1" pageScale="1" pageWidth="827" pageHeight="1169" math="0" shadow="0">
      <root>
        <mxCell id="0"/>
        <mxCell id="1" parent="0"/>
        <mxCell id="RJtu888N6699BQny4DWT-1" value="" style="rounded=1;whiteSpace=wrap;html=1;fillColor=#fff2cc;strokeColor=#d6b656;" vertex="1" parent="1">
          <mxGeometry x="137" y="81" width="208" height="126" as="geometry"/>
        </mxCell>
        <mxCell id="RJtu888N6699BQny4DWT-2" value="" style="rounded=1;whiteSpace=wrap;html=1;fillColor=#33FF99;" vertex="1" parent="1">
          <mxGeometry x="195" y="98.5" width="88" height="51" as="geometry"/>
        </mxCell>
        <mxCell id="RJtu888N6699BQny4DWT-3" value="eth0" style="rounded=0;whiteSpace=wrap;html=1;fillColor=#dae8fc;strokeColor=#6c8ebf;" vertex="1" parent="1">
          <mxGeometry x="216" y="131.5" width="46" height="18" as="geometry"/>
        </mxCell>
        <mxCell id="RJtu888N6699BQny4DWT-4" value="eth0" style="rounded=0;whiteSpace=wrap;html=1;fillColor=#dae8fc;strokeColor=#6c8ebf;" vertex="1" parent="1">
          <mxGeometry x="209.5" y="186" width="59" height="21" as="geometry"/>
        </mxCell>
        <mxCell id="RJtu888N6699BQny4DWT-5" value="Switch" style="rounded=1;whiteSpace=wrap;html=1;fillColor=#d5e8d4;strokeColor=#82b366;" vertex="1" parent="1">
          <mxGeometry x="310" y="260" width="134" height="30" as="geometry"/>
        </mxCell>
        <mxCell id="RJtu888N6699BQny4DWT-6" value="test1" style="text;html=1;strokeColor=none;fillColor=none;align=center;verticalAlign=middle;whiteSpace=wrap;rounded=0;" vertex="1" parent="1">
          <mxGeometry x="219" y="104" width="40" height="20" as="geometry"/>
        </mxCell>
        <mxCell id="RJtu888N6699BQny4DWT-7" value="" style="endArrow=openThin;startArrow=openThin;html=1;entryX=0.5;entryY=1;entryDx=0;entryDy=0;exitX=0.5;exitY=0;exitDx=0;exitDy=0;startFill=0;endFill=0;rounded=1;" edge="1" parent="1" source="RJtu888N6699BQny4DWT-4" target="RJtu888N6699BQny4DWT-3">
          <mxGeometry width="50" height="50" relative="1" as="geometry">
            <mxPoint x="151" y="374" as="sourcePoint"/>
            <mxPoint x="201" y="324" as="targetPoint"/>
          </mxGeometry>
        </mxCell>
        <mxCell id="RJtu888N6699BQny4DWT-8" value="Host" style="text;html=1;strokeColor=none;fillColor=none;align=center;verticalAlign=middle;whiteSpace=wrap;rounded=0;" vertex="1" parent="1">
          <mxGeometry x="151" y="95" width="40" height="20" as="geometry"/>
        </mxCell>
        <mxCell id="RJtu888N6699BQny4DWT-9" value="192.168.122.4" style="text;html=1;strokeColor=none;fillColor=none;align=center;verticalAlign=middle;whiteSpace=wrap;rounded=0;" vertex="1" parent="1">
          <mxGeometry x="247" y="149.5" width="83" height="20" as="geometry"/>
        </mxCell>
        <mxCell id="RJtu888N6699BQny4DWT-10" value="" style="rounded=1;whiteSpace=wrap;html=1;fillColor=#fff2cc;strokeColor=#d6b656;" vertex="1" parent="1">
          <mxGeometry x="424" y="83" width="208" height="126" as="geometry"/>
        </mxCell>
        <mxCell id="RJtu888N6699BQny4DWT-11" value="" style="rounded=1;whiteSpace=wrap;html=1;fillColor=#33FF99;" vertex="1" parent="1">
          <mxGeometry x="482" y="100.5" width="88" height="51" as="geometry"/>
        </mxCell>
        <mxCell id="RJtu888N6699BQny4DWT-12" value="eth0" style="rounded=0;whiteSpace=wrap;html=1;fillColor=#dae8fc;strokeColor=#6c8ebf;" vertex="1" parent="1">
          <mxGeometry x="503" y="133.5" width="46" height="18" as="geometry"/>
        </mxCell>
        <mxCell id="RJtu888N6699BQny4DWT-13" value="eth0" style="rounded=0;whiteSpace=wrap;html=1;fillColor=#dae8fc;strokeColor=#6c8ebf;" vertex="1" parent="1">
          <mxGeometry x="496.5" y="188" width="59" height="21" as="geometry"/>
        </mxCell>
        <mxCell id="RJtu888N6699BQny4DWT-14" value="test2" style="text;html=1;strokeColor=none;fillColor=none;align=center;verticalAlign=middle;whiteSpace=wrap;rounded=0;" vertex="1" parent="1">
          <mxGeometry x="506" y="106" width="40" height="20" as="geometry"/>
        </mxCell>
        <mxCell id="RJtu888N6699BQny4DWT-15" value="" style="endArrow=openThin;startArrow=openThin;html=1;entryX=0.5;entryY=1;entryDx=0;entryDy=0;exitX=0.5;exitY=0;exitDx=0;exitDy=0;startFill=0;endFill=0;rounded=1;" edge="1" parent="1" source="RJtu888N6699BQny4DWT-13" target="RJtu888N6699BQny4DWT-12">
          <mxGeometry width="50" height="50" relative="1" as="geometry">
            <mxPoint x="438" y="376" as="sourcePoint"/>
            <mxPoint x="488" y="326" as="targetPoint"/>
          </mxGeometry>
        </mxCell>
        <mxCell id="RJtu888N6699BQny4DWT-16" value="Host" style="text;html=1;strokeColor=none;fillColor=none;align=center;verticalAlign=middle;whiteSpace=wrap;rounded=0;" vertex="1" parent="1">
          <mxGeometry x="438" y="97" width="40" height="20" as="geometry"/>
        </mxCell>
        <mxCell id="RJtu888N6699BQny4DWT-17" value="192.168.122.12" style="text;html=1;strokeColor=none;fillColor=none;align=center;verticalAlign=middle;whiteSpace=wrap;rounded=0;" vertex="1" parent="1">
          <mxGeometry x="534" y="151.5" width="89" height="20" as="geometry"/>
        </mxCell>
        <mxCell id="RJtu888N6699BQny4DWT-19" value="" style="endArrow=openThin;startArrow=openThin;html=1;entryX=0.5;entryY=1;entryDx=0;entryDy=0;exitX=0.25;exitY=0;exitDx=0;exitDy=0;startFill=0;endFill=0;" edge="1" parent="1" source="RJtu888N6699BQny4DWT-5" target="RJtu888N6699BQny4DWT-4">
          <mxGeometry width="50" height="50" relative="1" as="geometry">
            <mxPoint x="137" y="361" as="sourcePoint"/>
            <mxPoint x="187" y="311" as="targetPoint"/>
          </mxGeometry>
        </mxCell>
        <mxCell id="RJtu888N6699BQny4DWT-20" value="" style="endArrow=openThin;startArrow=openThin;html=1;entryX=0.75;entryY=0;entryDx=0;entryDy=0;exitX=0.5;exitY=1;exitDx=0;exitDy=0;startFill=0;endFill=0;" edge="1" parent="1" source="RJtu888N6699BQny4DWT-13" target="RJtu888N6699BQny4DWT-5">
          <mxGeometry width="50" height="50" relative="1" as="geometry">
            <mxPoint x="357.5" y="270" as="sourcePoint"/>
            <mxPoint x="249.0000000000001" y="217" as="targetPoint"/>
          </mxGeometry>
        </mxCell>
        <mxCell id="RJtu888N6699BQny4DWT-21" value="192.168.122.184" style="text;html=1;strokeColor=none;fillColor=none;align=center;verticalAlign=middle;whiteSpace=wrap;rounded=0;" vertex="1" parent="1">
          <mxGeometry x="172" y="221" width="93" height="20" as="geometry"/>
        </mxCell>
        <mxCell id="RJtu888N6699BQny4DWT-22" value="192.168.122.178" style="text;html=1;strokeColor=none;fillColor=none;align=center;verticalAlign=middle;whiteSpace=wrap;rounded=0;" vertex="1" parent="1">
          <mxGeometry x="516" y="221" width="89" height="20" as="geometry"/>
        </mxCell>
      </root>
    </mxGraphModel>
  </diagram>
</mxfile>
